<?xml version="1.0" encoding="UTF-8" standalone="no"?>
<!-- Uploaded to: SVG Repo, www.svgrepo.com, Generator: SVG Repo Mixer Tools -->

<svg
   width="300"
   height="300"
   viewBox="0 0 12 12"
   version="1.1"
   id="svg22"
   xmlns:xlink="http://www.w3.org/1999/xlink"
   xmlns="http://www.w3.org/2000/svg"
   xmlns:svg="http://www.w3.org/2000/svg"
   xmlns:rdf="http://www.w3.org/1999/02/22-rdf-syntax-ns#"
   xmlns:cc="http://creativecommons.org/ns#"
   xmlns:dc="http://purl.org/dc/elements/1.1/">
  <defs
     id="defs26">
    <linearGradient
       id="linearGradient892">
      <stop
         style="stop-color:#005197;stop-opacity:1;"
         offset="0"
         id="stop888" />
      <stop
         style="stop-color:#37a5ff;stop-opacity:1;"
         offset="1"
         id="stop890" />
    </linearGradient>
    <linearGradient
       xlink:href="#linearGradient892"
       id="linearGradient894"
       x1="0"
       y1="8.1328487"
       x2="12"
       y2="2.4281921"
       gradientUnits="userSpaceOnUse" />
  </defs>
  <title
     id="title18">file_type_cobol</title>
  <path
     d="M 8.6694014,1.9457763 A 1.9077937,1.9077937 0 0 0 9.4262582,0.8643072 1.987982,1.987982 0 0 1 9.4185395,1.7892591 C 9.322914,2.038829 9.1754019,2.2639563 9.0609086,2.5049498 A 9.3361393,9.3361393 0 0 1 11.015871,1.2450941 c -0.206687,0.6380754 -0.780869,1.024008 -1.2028226,1.5137136 0.081475,0.175385 0.1200679,0.4240971 0.3430516,0.4755548 a 2.1595075,2.1595075 0 0 0 1.072035,0.066466 C 11.619214,3.1666098 11.80489,2.7613806 12,2.4281921 v 0.6299278 a 6.7486754,6.7486754 0 0 1 -0.249569,0.749567 C 11.836192,4.0422482 11.925815,4.2759518 12,4.5139436 V 4.9221745 C 11.90823,5.0799782 11.810465,5.2334936 11.715697,5.3891531 A 2.2697128,2.2697128 0 0 0 11.257723,4.8908712 1.7281206,1.7281206 0 0 0 10.463988,4.8372699 1.3773507,1.3773507 0 0 0 11.498716,5.4676264 C 11.344772,5.6262872 11.214413,5.8587045 10.971275,5.8831469 10.267591,5.9890639 9.5960686,5.6665958 8.896244,5.6687398 c -0.1209255,0.00857 -0.3031715,0.010292 -0.336619,0.1595188 0,0.3151784 0.093052,0.6230669 0.081474,0.9382452 -0.0253,0.5394481 -0.2195527,1.0574554 -0.2268425,1.5977611 a 5.9112016,5.9112016 0 0 0 0.3593461,1.4785509 c -0.2242694,-0.03301 -0.4476815,-0.07118 -0.6698071,-0.111492 -0.042882,0.08919 -0.078902,0.180102 -0.1114917,0.2718682 a 1.9356666,1.9356666 0 0 0 0.4884192,0.512433 c -0.026158,0.05446 -0.078044,0.163378 -0.1033442,0.217837 l -0.2457105,0.05917 C 8.075494,10.898553 8.0188905,11.003612 7.9601429,11.10953 A 1.8957868,1.8957868 0 0 0 7.016752,11.135693 C 6.8169247,11.055931 6.6188127,10.974456 6.4211293,10.892552 A 2.5467266,2.5467266 0 0 0 6.5956567,9.8998488 C 6.4747311,9.4787528 5.9095542,9.4778948 5.7380286,9.0949641 A 2.672798,2.672798 0 0 1 5.2997806,7.8724153 C 4.9468666,7.6867387 4.6758562,7.3488332 4.2706269,7.2720756 4.2500439,7.4474604 4.2350353,7.623703 4.2050182,7.7982304 A 2.5793165,2.5793165 0 0 1 3.6269768,8.8299569 c 0.016724,0.1809596 0.033877,0.3610619 0.051458,0.5424499 0.1483697,0.138935 0.2963105,0.277871 0.4429649,0.417665 A 4.1817946,4.1817946 0 0 1 3.5099108,10.095817 4.7658393,4.7658393 0 0 1 2.7865015,10.128827 C 2.6758672,10.019916 2.5643756,9.9109968 2.4533127,9.8012208 a 2.0887532,2.0887532 0 0 0 0.048885,-1.118347 C 2.5755248,8.5113481 2.6419909,8.3346767 2.7058843,8.1592918 A 2.3863502,2.3863502 0 0 1 1.4151539,8.2476275 2.1955279,2.1955279 0 0 1 0.00435571,6.3908627 1.6547934,1.6547934 0 0 1 0.60769706,4.9894984 2.748698,2.748698 0 0 0 0.5047817,6.1108472 1.3027371,1.3027371 0 0 0 1.5768168,7.1683026 1.4845542,1.4845542 0 0 0 2.4172924,6.8925751 3.207529,3.207529 0 0 1 2.5729519,5.1202867 2.3687688,2.3687688 0 0 1 4.110679,3.9796413 1.8160275,1.8160275 0 0 0 4.9730243,3.3081185 4.5754459,4.5754459 0 0 1 5.628681,2.7377959 C 5.5309114,2.6438855 5.4344282,2.5491177 5.3370874,2.4552073 A 0.92366545,0.92366545 0 0 0 5.9507203,1.7215065 C 6.5013176,1.5928623 7.044625,1.4380605 7.58879,1.2879755 A 1.6264917,1.6264917 0 0 0 8.1955619,1.5478368 C 8.3314959,1.6962065 8.407396,2.0439747 8.6672573,1.9457763 M 7.0476266,7.6755895 c 0.018011,0.3293293 -0.020583,0.7139755 0.2890208,0.9240943 0,-0.3237546 -0.019726,-0.6462227 -0.042882,-0.9691198 z"
     style="fill:url(#linearGradient894);stroke-width:0.428814;fill-opacity:1"
     id="path20" />
  <metadata
     id="metadata151">
    <rdf:RDF>
      <cc:Work
         rdf:about="">
        <dc:title>file_type_cobol</dc:title>
      </cc:Work>
    </rdf:RDF>
  </metadata>
</svg>
